<mxfile host="app.diagrams.net" modified="2022-08-13T08:25:45.618Z" agent="5.0 (Macintosh; Intel Mac OS X 10_15_7) AppleWebKit/537.36 (KHTML, like Gecko) Chrome/104.0.0.0 Safari/537.36" etag="vThNBFSA9bIPIY4Whc9o" version="20.2.3" type="github">
  <diagram id="Ynf6QPGDEZ-ptIwz1Awv" name="第 1 页">
    <mxGraphModel dx="2125" dy="776" grid="1" gridSize="10" guides="1" tooltips="1" connect="1" arrows="1" fold="1" page="1" pageScale="1" pageWidth="827" pageHeight="1169" math="0" shadow="0">
      <root>
        <mxCell id="0" />
        <mxCell id="1" parent="0" />
        <mxCell id="_4qr_AEgsPWRSvo8s8fp-1" value="" style="edgeStyle=orthogonalEdgeStyle;rounded=0;orthogonalLoop=1;jettySize=auto;html=1;" edge="1" parent="1" source="_4qr_AEgsPWRSvo8s8fp-5" target="_4qr_AEgsPWRSvo8s8fp-8">
          <mxGeometry relative="1" as="geometry" />
        </mxCell>
        <mxCell id="_4qr_AEgsPWRSvo8s8fp-2" value="Yes" style="edgeLabel;html=1;align=center;verticalAlign=middle;resizable=0;points=[];" vertex="1" connectable="0" parent="_4qr_AEgsPWRSvo8s8fp-1">
          <mxGeometry x="-0.1303" y="2" relative="1" as="geometry">
            <mxPoint as="offset" />
          </mxGeometry>
        </mxCell>
        <mxCell id="_4qr_AEgsPWRSvo8s8fp-3" value="" style="edgeStyle=orthogonalEdgeStyle;rounded=0;orthogonalLoop=1;jettySize=auto;html=1;" edge="1" parent="1" source="_4qr_AEgsPWRSvo8s8fp-5" target="_4qr_AEgsPWRSvo8s8fp-30">
          <mxGeometry relative="1" as="geometry" />
        </mxCell>
        <mxCell id="_4qr_AEgsPWRSvo8s8fp-4" value="N o" style="edgeLabel;html=1;align=center;verticalAlign=middle;resizable=0;points=[];" vertex="1" connectable="0" parent="_4qr_AEgsPWRSvo8s8fp-3">
          <mxGeometry x="-0.3" relative="1" as="geometry">
            <mxPoint as="offset" />
          </mxGeometry>
        </mxCell>
        <mxCell id="_4qr_AEgsPWRSvo8s8fp-5" value="判断任务集合是否为 null" style="rounded=1;whiteSpace=wrap;html=1;fillColor=#d5e8d4;strokeColor=#82b366;" vertex="1" parent="1">
          <mxGeometry x="110" y="110" width="120" height="40" as="geometry" />
        </mxCell>
        <mxCell id="_4qr_AEgsPWRSvo8s8fp-6" style="edgeStyle=orthogonalEdgeStyle;rounded=0;orthogonalLoop=1;jettySize=auto;html=1;exitX=0.5;exitY=1;exitDx=0;exitDy=0;entryX=0.5;entryY=0;entryDx=0;entryDy=0;" edge="1" parent="1" source="_4qr_AEgsPWRSvo8s8fp-7" target="_4qr_AEgsPWRSvo8s8fp-5">
          <mxGeometry relative="1" as="geometry" />
        </mxCell>
        <mxCell id="_4qr_AEgsPWRSvo8s8fp-7" value="start&lt;br&gt;invokeAll 没有设置超时时间" style="ellipse;whiteSpace=wrap;html=1;fillColor=#fff2cc;strokeColor=#d6b656;" vertex="1" parent="1">
          <mxGeometry x="110" y="30" width="120" height="40" as="geometry" />
        </mxCell>
        <mxCell id="_4qr_AEgsPWRSvo8s8fp-8" value="抛出异常NullPointerException" style="whiteSpace=wrap;html=1;fillColor=#d5e8d4;strokeColor=#82b366;rounded=1;" vertex="1" parent="1">
          <mxGeometry x="310" y="100" width="120" height="60" as="geometry" />
        </mxCell>
        <mxCell id="_4qr_AEgsPWRSvo8s8fp-45" value="" style="edgeStyle=orthogonalEdgeStyle;rounded=0;orthogonalLoop=1;jettySize=auto;html=1;" edge="1" parent="1" source="_4qr_AEgsPWRSvo8s8fp-30" target="_4qr_AEgsPWRSvo8s8fp-44">
          <mxGeometry relative="1" as="geometry" />
        </mxCell>
        <mxCell id="_4qr_AEgsPWRSvo8s8fp-30" value="将 RunnableFuture 封装为&amp;nbsp;ExecutorCompletionService ecs" style="whiteSpace=wrap;html=1;fillColor=#d5e8d4;strokeColor=#82b366;rounded=1;" vertex="1" parent="1">
          <mxGeometry x="40" y="200" width="250" height="40" as="geometry" />
        </mxCell>
        <mxCell id="_4qr_AEgsPWRSvo8s8fp-54" value="" style="edgeStyle=orthogonalEdgeStyle;rounded=0;orthogonalLoop=1;jettySize=auto;html=1;" edge="1" parent="1" source="_4qr_AEgsPWRSvo8s8fp-44" target="_4qr_AEgsPWRSvo8s8fp-53">
          <mxGeometry relative="1" as="geometry" />
        </mxCell>
        <mxCell id="_4qr_AEgsPWRSvo8s8fp-44" value="计算结束时间" style="whiteSpace=wrap;html=1;fillColor=#d5e8d4;strokeColor=#82b366;rounded=1;" vertex="1" parent="1">
          <mxGeometry x="105" y="270" width="120" height="40" as="geometry" />
        </mxCell>
        <mxCell id="_4qr_AEgsPWRSvo8s8fp-52" value="" style="edgeStyle=orthogonalEdgeStyle;rounded=0;orthogonalLoop=1;jettySize=auto;html=1;" edge="1" parent="1" source="_4qr_AEgsPWRSvo8s8fp-46" target="_4qr_AEgsPWRSvo8s8fp-51">
          <mxGeometry relative="1" as="geometry" />
        </mxCell>
        <mxCell id="_4qr_AEgsPWRSvo8s8fp-46" value="死循环" style="whiteSpace=wrap;html=1;fillColor=#d5e8d4;strokeColor=#82b366;rounded=1;" vertex="1" parent="1">
          <mxGeometry x="62.5" y="585" width="205" height="40" as="geometry" />
        </mxCell>
        <mxCell id="_4qr_AEgsPWRSvo8s8fp-61" value="" style="edgeStyle=orthogonalEdgeStyle;rounded=0;orthogonalLoop=1;jettySize=auto;html=1;" edge="1" parent="1" source="_4qr_AEgsPWRSvo8s8fp-51" target="_4qr_AEgsPWRSvo8s8fp-60">
          <mxGeometry relative="1" as="geometry" />
        </mxCell>
        <mxCell id="_4qr_AEgsPWRSvo8s8fp-51" value="ecs.poll获取 Future" style="whiteSpace=wrap;html=1;fillColor=#d5e8d4;strokeColor=#82b366;rounded=1;" vertex="1" parent="1">
          <mxGeometry x="105" y="655" width="120" height="60" as="geometry" />
        </mxCell>
        <mxCell id="_4qr_AEgsPWRSvo8s8fp-56" value="" style="edgeStyle=orthogonalEdgeStyle;rounded=0;orthogonalLoop=1;jettySize=auto;html=1;" edge="1" parent="1" source="_4qr_AEgsPWRSvo8s8fp-53" target="_4qr_AEgsPWRSvo8s8fp-55">
          <mxGeometry relative="1" as="geometry" />
        </mxCell>
        <mxCell id="_4qr_AEgsPWRSvo8s8fp-53" value="开始执行任务，将任务放入线程池中" style="whiteSpace=wrap;html=1;fillColor=#d5e8d4;strokeColor=#82b366;rounded=1;" vertex="1" parent="1">
          <mxGeometry x="105" y="340" width="120" height="30" as="geometry" />
        </mxCell>
        <mxCell id="_4qr_AEgsPWRSvo8s8fp-58" value="" style="edgeStyle=orthogonalEdgeStyle;rounded=0;orthogonalLoop=1;jettySize=auto;html=1;" edge="1" parent="1" source="_4qr_AEgsPWRSvo8s8fp-55" target="_4qr_AEgsPWRSvo8s8fp-57">
          <mxGeometry relative="1" as="geometry" />
        </mxCell>
        <mxCell id="_4qr_AEgsPWRSvo8s8fp-55" value="任务数量减 ntask--" style="whiteSpace=wrap;html=1;fillColor=#d5e8d4;strokeColor=#82b366;rounded=1;" vertex="1" parent="1">
          <mxGeometry x="105" y="400" width="120" height="60" as="geometry" />
        </mxCell>
        <mxCell id="_4qr_AEgsPWRSvo8s8fp-59" style="edgeStyle=orthogonalEdgeStyle;rounded=0;orthogonalLoop=1;jettySize=auto;html=1;entryX=0.5;entryY=0;entryDx=0;entryDy=0;" edge="1" parent="1" source="_4qr_AEgsPWRSvo8s8fp-57" target="_4qr_AEgsPWRSvo8s8fp-46">
          <mxGeometry relative="1" as="geometry" />
        </mxCell>
        <mxCell id="_4qr_AEgsPWRSvo8s8fp-57" value="初始化已经执行的任务数量 active = 1" style="whiteSpace=wrap;html=1;fillColor=#d5e8d4;strokeColor=#82b366;rounded=1;" vertex="1" parent="1">
          <mxGeometry x="105" y="490" width="120" height="60" as="geometry" />
        </mxCell>
        <mxCell id="_4qr_AEgsPWRSvo8s8fp-66" value="" style="edgeStyle=orthogonalEdgeStyle;rounded=0;orthogonalLoop=1;jettySize=auto;html=1;" edge="1" parent="1" source="_4qr_AEgsPWRSvo8s8fp-60" target="_4qr_AEgsPWRSvo8s8fp-65">
          <mxGeometry relative="1" as="geometry" />
        </mxCell>
        <mxCell id="_4qr_AEgsPWRSvo8s8fp-91" value="Yes" style="edgeLabel;html=1;align=center;verticalAlign=middle;resizable=0;points=[];" vertex="1" connectable="0" parent="_4qr_AEgsPWRSvo8s8fp-66">
          <mxGeometry x="0.3" y="2" relative="1" as="geometry">
            <mxPoint as="offset" />
          </mxGeometry>
        </mxCell>
        <mxCell id="_4qr_AEgsPWRSvo8s8fp-126" value="" style="edgeStyle=orthogonalEdgeStyle;rounded=0;orthogonalLoop=1;jettySize=auto;html=1;" edge="1" parent="1" source="_4qr_AEgsPWRSvo8s8fp-60" target="_4qr_AEgsPWRSvo8s8fp-125">
          <mxGeometry relative="1" as="geometry" />
        </mxCell>
        <mxCell id="_4qr_AEgsPWRSvo8s8fp-127" value="No" style="edgeLabel;html=1;align=center;verticalAlign=middle;resizable=0;points=[];" vertex="1" connectable="0" parent="_4qr_AEgsPWRSvo8s8fp-126">
          <mxGeometry x="-0.3176" y="1" relative="1" as="geometry">
            <mxPoint as="offset" />
          </mxGeometry>
        </mxCell>
        <mxCell id="_4qr_AEgsPWRSvo8s8fp-60" value="如果为 null" style="rhombus;whiteSpace=wrap;html=1;fillColor=#d5e8d4;strokeColor=#82b366;rounded=1;" vertex="1" parent="1">
          <mxGeometry x="125" y="750" width="80" height="40" as="geometry" />
        </mxCell>
        <mxCell id="_4qr_AEgsPWRSvo8s8fp-90" value="" style="edgeStyle=orthogonalEdgeStyle;rounded=0;orthogonalLoop=1;jettySize=auto;html=1;" edge="1" parent="1" source="_4qr_AEgsPWRSvo8s8fp-62" target="_4qr_AEgsPWRSvo8s8fp-89">
          <mxGeometry relative="1" as="geometry" />
        </mxCell>
        <mxCell id="_4qr_AEgsPWRSvo8s8fp-62" value="开始执行任务，将任务放入线程池中" style="whiteSpace=wrap;html=1;fillColor=#d5e8d4;strokeColor=#82b366;rounded=1;" vertex="1" parent="1">
          <mxGeometry x="620" y="755" width="120" height="30" as="geometry" />
        </mxCell>
        <mxCell id="_4qr_AEgsPWRSvo8s8fp-68" value="" style="edgeStyle=orthogonalEdgeStyle;rounded=0;orthogonalLoop=1;jettySize=auto;html=1;" edge="1" parent="1" source="_4qr_AEgsPWRSvo8s8fp-65" target="_4qr_AEgsPWRSvo8s8fp-67">
          <mxGeometry relative="1" as="geometry" />
        </mxCell>
        <mxCell id="_4qr_AEgsPWRSvo8s8fp-69" value="Yes" style="edgeLabel;html=1;align=center;verticalAlign=middle;resizable=0;points=[];" vertex="1" connectable="0" parent="_4qr_AEgsPWRSvo8s8fp-68">
          <mxGeometry x="-0.4333" y="-1" relative="1" as="geometry">
            <mxPoint y="1" as="offset" />
          </mxGeometry>
        </mxCell>
        <mxCell id="_4qr_AEgsPWRSvo8s8fp-73" value="" style="edgeStyle=orthogonalEdgeStyle;rounded=0;orthogonalLoop=1;jettySize=auto;html=1;" edge="1" parent="1" source="_4qr_AEgsPWRSvo8s8fp-65" target="_4qr_AEgsPWRSvo8s8fp-72">
          <mxGeometry relative="1" as="geometry" />
        </mxCell>
        <mxCell id="_4qr_AEgsPWRSvo8s8fp-92" value="No" style="edgeLabel;html=1;align=center;verticalAlign=middle;resizable=0;points=[];" vertex="1" connectable="0" parent="_4qr_AEgsPWRSvo8s8fp-73">
          <mxGeometry x="-0.3667" y="-4" relative="1" as="geometry">
            <mxPoint as="offset" />
          </mxGeometry>
        </mxCell>
        <mxCell id="_4qr_AEgsPWRSvo8s8fp-65" value="如果 ntask &amp;gt; 0" style="rhombus;whiteSpace=wrap;html=1;fillColor=#d5e8d4;strokeColor=#82b366;rounded=1;" vertex="1" parent="1">
          <mxGeometry x="270" y="750" width="80" height="40" as="geometry" />
        </mxCell>
        <mxCell id="_4qr_AEgsPWRSvo8s8fp-88" style="edgeStyle=orthogonalEdgeStyle;rounded=0;orthogonalLoop=1;jettySize=auto;html=1;exitX=1;exitY=0.5;exitDx=0;exitDy=0;entryX=0;entryY=0.5;entryDx=0;entryDy=0;" edge="1" parent="1" source="_4qr_AEgsPWRSvo8s8fp-67" target="_4qr_AEgsPWRSvo8s8fp-62">
          <mxGeometry relative="1" as="geometry" />
        </mxCell>
        <mxCell id="_4qr_AEgsPWRSvo8s8fp-67" value="ntask--" style="whiteSpace=wrap;html=1;fillColor=#d5e8d4;strokeColor=#82b366;rounded=1;" vertex="1" parent="1">
          <mxGeometry x="425" y="740" width="120" height="60" as="geometry" />
        </mxCell>
        <mxCell id="_4qr_AEgsPWRSvo8s8fp-75" value="" style="edgeStyle=orthogonalEdgeStyle;rounded=0;orthogonalLoop=1;jettySize=auto;html=1;" edge="1" parent="1" source="_4qr_AEgsPWRSvo8s8fp-72" target="_4qr_AEgsPWRSvo8s8fp-74">
          <mxGeometry relative="1" as="geometry" />
        </mxCell>
        <mxCell id="_4qr_AEgsPWRSvo8s8fp-93" value="Yes" style="edgeLabel;html=1;align=center;verticalAlign=middle;resizable=0;points=[];" vertex="1" connectable="0" parent="_4qr_AEgsPWRSvo8s8fp-75">
          <mxGeometry x="-0.2333" y="2" relative="1" as="geometry">
            <mxPoint y="1" as="offset" />
          </mxGeometry>
        </mxCell>
        <mxCell id="_4qr_AEgsPWRSvo8s8fp-95" value="" style="edgeStyle=orthogonalEdgeStyle;rounded=0;orthogonalLoop=1;jettySize=auto;html=1;" edge="1" parent="1" source="_4qr_AEgsPWRSvo8s8fp-72" target="_4qr_AEgsPWRSvo8s8fp-94">
          <mxGeometry relative="1" as="geometry" />
        </mxCell>
        <mxCell id="_4qr_AEgsPWRSvo8s8fp-72" value="active == 0" style="rhombus;whiteSpace=wrap;html=1;fillColor=#d5e8d4;strokeColor=#82b366;rounded=1;" vertex="1" parent="1">
          <mxGeometry x="270" y="850" width="80" height="30" as="geometry" />
        </mxCell>
        <mxCell id="_4qr_AEgsPWRSvo8s8fp-79" value="" style="edgeStyle=orthogonalEdgeStyle;rounded=0;orthogonalLoop=1;jettySize=auto;html=1;" edge="1" parent="1" source="_4qr_AEgsPWRSvo8s8fp-74" target="_4qr_AEgsPWRSvo8s8fp-78">
          <mxGeometry relative="1" as="geometry" />
        </mxCell>
        <mxCell id="_4qr_AEgsPWRSvo8s8fp-74" value="break; 跳出死循环" style="whiteSpace=wrap;html=1;fillColor=#d5e8d4;strokeColor=#82b366;rounded=1;" vertex="1" parent="1">
          <mxGeometry x="425" y="835" width="120" height="60" as="geometry" />
        </mxCell>
        <mxCell id="_4qr_AEgsPWRSvo8s8fp-81" value="" style="edgeStyle=orthogonalEdgeStyle;rounded=0;orthogonalLoop=1;jettySize=auto;html=1;" edge="1" parent="1" source="_4qr_AEgsPWRSvo8s8fp-78" target="_4qr_AEgsPWRSvo8s8fp-80">
          <mxGeometry relative="1" as="geometry" />
        </mxCell>
        <mxCell id="_4qr_AEgsPWRSvo8s8fp-82" value="Yes" style="edgeLabel;html=1;align=center;verticalAlign=middle;resizable=0;points=[];" vertex="1" connectable="0" parent="_4qr_AEgsPWRSvo8s8fp-81">
          <mxGeometry x="-0.2" relative="1" as="geometry">
            <mxPoint as="offset" />
          </mxGeometry>
        </mxCell>
        <mxCell id="_4qr_AEgsPWRSvo8s8fp-84" value="" style="edgeStyle=orthogonalEdgeStyle;rounded=0;orthogonalLoop=1;jettySize=auto;html=1;" edge="1" parent="1" source="_4qr_AEgsPWRSvo8s8fp-78" target="_4qr_AEgsPWRSvo8s8fp-83">
          <mxGeometry relative="1" as="geometry" />
        </mxCell>
        <mxCell id="_4qr_AEgsPWRSvo8s8fp-87" value="No" style="edgeLabel;html=1;align=center;verticalAlign=middle;resizable=0;points=[];" vertex="1" connectable="0" parent="_4qr_AEgsPWRSvo8s8fp-84">
          <mxGeometry x="-0.15" y="3" relative="1" as="geometry">
            <mxPoint as="offset" />
          </mxGeometry>
        </mxCell>
        <mxCell id="_4qr_AEgsPWRSvo8s8fp-78" value="判读 ee 异常是否为 null" style="rhombus;whiteSpace=wrap;html=1;fillColor=#d5e8d4;strokeColor=#82b366;rounded=1;" vertex="1" parent="1">
          <mxGeometry x="610" y="842.5" width="80" height="45" as="geometry" />
        </mxCell>
        <mxCell id="_4qr_AEgsPWRSvo8s8fp-80" value="ee = new ExecutionException();" style="whiteSpace=wrap;html=1;fillColor=#d5e8d4;strokeColor=#82b366;rounded=1;" vertex="1" parent="1">
          <mxGeometry x="750" y="835" width="120" height="60" as="geometry" />
        </mxCell>
        <mxCell id="_4qr_AEgsPWRSvo8s8fp-86" value="" style="edgeStyle=orthogonalEdgeStyle;rounded=0;orthogonalLoop=1;jettySize=auto;html=1;" edge="1" parent="1" source="_4qr_AEgsPWRSvo8s8fp-83" target="_4qr_AEgsPWRSvo8s8fp-85">
          <mxGeometry relative="1" as="geometry" />
        </mxCell>
        <mxCell id="_4qr_AEgsPWRSvo8s8fp-83" value="遍历 Future 集合，调用 Future 取消任务" style="whiteSpace=wrap;html=1;fillColor=#d5e8d4;strokeColor=#82b366;rounded=1;" vertex="1" parent="1">
          <mxGeometry x="670" y="1020" width="120" height="60" as="geometry" />
        </mxCell>
        <mxCell id="_4qr_AEgsPWRSvo8s8fp-85" value="抛出异常 throw ee" style="whiteSpace=wrap;html=1;fillColor=#d5e8d4;strokeColor=#82b366;rounded=1;" vertex="1" parent="1">
          <mxGeometry x="860" y="1020" width="120" height="60" as="geometry" />
        </mxCell>
        <mxCell id="_4qr_AEgsPWRSvo8s8fp-106" style="edgeStyle=orthogonalEdgeStyle;rounded=0;orthogonalLoop=1;jettySize=auto;html=1;" edge="1" parent="1" source="_4qr_AEgsPWRSvo8s8fp-89">
          <mxGeometry relative="1" as="geometry">
            <mxPoint x="210" y="560" as="targetPoint" />
            <Array as="points">
              <mxPoint x="880" y="560" />
            </Array>
          </mxGeometry>
        </mxCell>
        <mxCell id="_4qr_AEgsPWRSvo8s8fp-89" value="active++ 任务执行计数 +1" style="whiteSpace=wrap;html=1;fillColor=#d5e8d4;strokeColor=#82b366;rounded=1;" vertex="1" parent="1">
          <mxGeometry x="820" y="740" width="120" height="60" as="geometry" />
        </mxCell>
        <mxCell id="_4qr_AEgsPWRSvo8s8fp-97" style="edgeStyle=orthogonalEdgeStyle;rounded=0;orthogonalLoop=1;jettySize=auto;html=1;entryX=0;entryY=0.5;entryDx=0;entryDy=0;" edge="1" parent="1" source="_4qr_AEgsPWRSvo8s8fp-94" target="_4qr_AEgsPWRSvo8s8fp-96">
          <mxGeometry relative="1" as="geometry" />
        </mxCell>
        <mxCell id="_4qr_AEgsPWRSvo8s8fp-104" value="" style="edgeStyle=orthogonalEdgeStyle;rounded=0;orthogonalLoop=1;jettySize=auto;html=1;startArrow=none;" edge="1" parent="1" source="_4qr_AEgsPWRSvo8s8fp-96" target="_4qr_AEgsPWRSvo8s8fp-103">
          <mxGeometry relative="1" as="geometry" />
        </mxCell>
        <mxCell id="_4qr_AEgsPWRSvo8s8fp-124" value="No" style="edgeLabel;html=1;align=center;verticalAlign=middle;resizable=0;points=[];" vertex="1" connectable="0" parent="_4qr_AEgsPWRSvo8s8fp-104">
          <mxGeometry x="0.288" y="-2" relative="1" as="geometry">
            <mxPoint as="offset" />
          </mxGeometry>
        </mxCell>
        <mxCell id="_4qr_AEgsPWRSvo8s8fp-120" value="" style="edgeStyle=orthogonalEdgeStyle;rounded=0;orthogonalLoop=1;jettySize=auto;html=1;" edge="1" parent="1" source="_4qr_AEgsPWRSvo8s8fp-94" target="_4qr_AEgsPWRSvo8s8fp-119">
          <mxGeometry relative="1" as="geometry" />
        </mxCell>
        <mxCell id="_4qr_AEgsPWRSvo8s8fp-121" value="No" style="edgeLabel;html=1;align=center;verticalAlign=middle;resizable=0;points=[];" vertex="1" connectable="0" parent="_4qr_AEgsPWRSvo8s8fp-120">
          <mxGeometry x="-0.5556" y="-3" relative="1" as="geometry">
            <mxPoint as="offset" />
          </mxGeometry>
        </mxCell>
        <mxCell id="_4qr_AEgsPWRSvo8s8fp-94" value="是否指定了超时时间&lt;br&gt;timed" style="rhombus;whiteSpace=wrap;html=1;fillColor=#d5e8d4;strokeColor=#82b366;rounded=1;" vertex="1" parent="1">
          <mxGeometry x="270" y="935" width="80" height="80" as="geometry" />
        </mxCell>
        <mxCell id="_4qr_AEgsPWRSvo8s8fp-100" style="edgeStyle=orthogonalEdgeStyle;rounded=0;orthogonalLoop=1;jettySize=auto;html=1;entryX=0.5;entryY=0;entryDx=0;entryDy=0;" edge="1" parent="1" source="_4qr_AEgsPWRSvo8s8fp-96" target="_4qr_AEgsPWRSvo8s8fp-99">
          <mxGeometry relative="1" as="geometry" />
        </mxCell>
        <mxCell id="_4qr_AEgsPWRSvo8s8fp-102" value="" style="edgeStyle=orthogonalEdgeStyle;rounded=0;orthogonalLoop=1;jettySize=auto;html=1;exitX=1;exitY=0.5;exitDx=0;exitDy=0;" edge="1" parent="1" source="_4qr_AEgsPWRSvo8s8fp-99" target="_4qr_AEgsPWRSvo8s8fp-101">
          <mxGeometry relative="1" as="geometry" />
        </mxCell>
        <mxCell id="_4qr_AEgsPWRSvo8s8fp-123" value="Yes" style="edgeLabel;html=1;align=center;verticalAlign=middle;resizable=0;points=[];" vertex="1" connectable="0" parent="_4qr_AEgsPWRSvo8s8fp-102">
          <mxGeometry x="-0.25" y="-2" relative="1" as="geometry">
            <mxPoint y="1" as="offset" />
          </mxGeometry>
        </mxCell>
        <mxCell id="_4qr_AEgsPWRSvo8s8fp-99" value="如果为 null" style="rhombus;whiteSpace=wrap;html=1;fillColor=#d5e8d4;strokeColor=#82b366;rounded=1;" vertex="1" parent="1">
          <mxGeometry x="420" y="1030" width="80" height="40" as="geometry" />
        </mxCell>
        <mxCell id="_4qr_AEgsPWRSvo8s8fp-110" style="edgeStyle=orthogonalEdgeStyle;rounded=0;orthogonalLoop=1;jettySize=auto;html=1;entryX=0.5;entryY=0;entryDx=0;entryDy=0;" edge="1" parent="1" source="_4qr_AEgsPWRSvo8s8fp-101" target="_4qr_AEgsPWRSvo8s8fp-111">
          <mxGeometry relative="1" as="geometry">
            <mxPoint x="640" y="1150" as="targetPoint" />
          </mxGeometry>
        </mxCell>
        <mxCell id="_4qr_AEgsPWRSvo8s8fp-101" value="抛出超时异常&lt;br&gt;throw new TimeoutException();" style="whiteSpace=wrap;html=1;fillColor=#d5e8d4;strokeColor=#82b366;rounded=1;" vertex="1" parent="1">
          <mxGeometry x="540" y="1020" width="120" height="60" as="geometry" />
        </mxCell>
        <mxCell id="_4qr_AEgsPWRSvo8s8fp-112" style="edgeStyle=orthogonalEdgeStyle;rounded=0;orthogonalLoop=1;jettySize=auto;html=1;exitX=0.5;exitY=1;exitDx=0;exitDy=0;" edge="1" parent="1" source="_4qr_AEgsPWRSvo8s8fp-103">
          <mxGeometry relative="1" as="geometry">
            <mxPoint x="880" y="560" as="targetPoint" />
            <Array as="points">
              <mxPoint x="460" y="1220" />
              <mxPoint x="1010" y="1220" />
              <mxPoint x="1010" y="560" />
            </Array>
          </mxGeometry>
        </mxCell>
        <mxCell id="_4qr_AEgsPWRSvo8s8fp-103" value="计算超时时间" style="whiteSpace=wrap;html=1;fillColor=#d5e8d4;strokeColor=#82b366;rounded=1;" vertex="1" parent="1">
          <mxGeometry x="400" y="1130" width="120" height="60" as="geometry" />
        </mxCell>
        <mxCell id="_4qr_AEgsPWRSvo8s8fp-96" value="ecs.poll获取 Future" style="whiteSpace=wrap;html=1;fillColor=#d5e8d4;strokeColor=#82b366;rounded=1;" vertex="1" parent="1">
          <mxGeometry x="400" y="945" width="120" height="60" as="geometry" />
        </mxCell>
        <mxCell id="_4qr_AEgsPWRSvo8s8fp-108" value="" style="edgeStyle=orthogonalEdgeStyle;rounded=0;orthogonalLoop=1;jettySize=auto;html=1;endArrow=none;" edge="1" parent="1" source="_4qr_AEgsPWRSvo8s8fp-94" target="_4qr_AEgsPWRSvo8s8fp-96">
          <mxGeometry relative="1" as="geometry">
            <mxPoint x="365" y="975" as="sourcePoint" />
            <mxPoint x="474" y="1190" as="targetPoint" />
          </mxGeometry>
        </mxCell>
        <mxCell id="_4qr_AEgsPWRSvo8s8fp-114" value="Yes" style="edgeLabel;html=1;align=center;verticalAlign=middle;resizable=0;points=[];" vertex="1" connectable="0" parent="_4qr_AEgsPWRSvo8s8fp-108">
          <mxGeometry x="0.04" y="1" relative="1" as="geometry">
            <mxPoint as="offset" />
          </mxGeometry>
        </mxCell>
        <mxCell id="_4qr_AEgsPWRSvo8s8fp-111" value="遍历 Future 集合，调用 Future 取消任务" style="whiteSpace=wrap;html=1;fillColor=#d5e8d4;strokeColor=#82b366;rounded=1;" vertex="1" parent="1">
          <mxGeometry x="540" y="1130" width="120" height="60" as="geometry" />
        </mxCell>
        <mxCell id="_4qr_AEgsPWRSvo8s8fp-122" style="edgeStyle=orthogonalEdgeStyle;rounded=0;orthogonalLoop=1;jettySize=auto;html=1;" edge="1" parent="1" source="_4qr_AEgsPWRSvo8s8fp-119">
          <mxGeometry relative="1" as="geometry">
            <mxPoint x="460" y="1220" as="targetPoint" />
            <Array as="points">
              <mxPoint x="310" y="1220" />
            </Array>
          </mxGeometry>
        </mxCell>
        <mxCell id="_4qr_AEgsPWRSvo8s8fp-119" value="&amp;nbsp;从 ecs 移除 Future" style="whiteSpace=wrap;html=1;fillColor=#d5e8d4;strokeColor=#82b366;rounded=1;" vertex="1" parent="1">
          <mxGeometry x="250" y="1060" width="120" height="60" as="geometry" />
        </mxCell>
        <mxCell id="_4qr_AEgsPWRSvo8s8fp-129" value="" style="edgeStyle=orthogonalEdgeStyle;rounded=0;orthogonalLoop=1;jettySize=auto;html=1;" edge="1" parent="1" source="_4qr_AEgsPWRSvo8s8fp-125" target="_4qr_AEgsPWRSvo8s8fp-128">
          <mxGeometry relative="1" as="geometry" />
        </mxCell>
        <mxCell id="_4qr_AEgsPWRSvo8s8fp-125" value="active&amp;nbsp; 任务执行计数减1&amp;nbsp;" style="whiteSpace=wrap;html=1;fillColor=#d5e8d4;strokeColor=#82b366;rounded=1;" vertex="1" parent="1">
          <mxGeometry x="105" y="827.5" width="120" height="60" as="geometry" />
        </mxCell>
        <mxCell id="_4qr_AEgsPWRSvo8s8fp-131" value="" style="edgeStyle=orthogonalEdgeStyle;rounded=0;orthogonalLoop=1;jettySize=auto;html=1;" edge="1" parent="1" source="_4qr_AEgsPWRSvo8s8fp-128" target="_4qr_AEgsPWRSvo8s8fp-130">
          <mxGeometry relative="1" as="geometry" />
        </mxCell>
        <mxCell id="_4qr_AEgsPWRSvo8s8fp-132" value="Yes" style="edgeLabel;html=1;align=center;verticalAlign=middle;resizable=0;points=[];" vertex="1" connectable="0" parent="_4qr_AEgsPWRSvo8s8fp-131">
          <mxGeometry x="-0.25" y="-4" relative="1" as="geometry">
            <mxPoint as="offset" />
          </mxGeometry>
        </mxCell>
        <mxCell id="_4qr_AEgsPWRSvo8s8fp-139" value="" style="edgeStyle=orthogonalEdgeStyle;rounded=0;orthogonalLoop=1;jettySize=auto;html=1;" edge="1" parent="1" source="_4qr_AEgsPWRSvo8s8fp-128" target="_4qr_AEgsPWRSvo8s8fp-138">
          <mxGeometry relative="1" as="geometry" />
        </mxCell>
        <mxCell id="_4qr_AEgsPWRSvo8s8fp-128" value="return f.get()&lt;br&gt;阻塞获取结果值&lt;br&gt;是否执行异常" style="rhombus;whiteSpace=wrap;html=1;fillColor=#d5e8d4;strokeColor=#82b366;rounded=1;" vertex="1" parent="1">
          <mxGeometry x="105" y="930" width="120" height="60" as="geometry" />
        </mxCell>
        <mxCell id="_4qr_AEgsPWRSvo8s8fp-135" style="edgeStyle=orthogonalEdgeStyle;rounded=0;orthogonalLoop=1;jettySize=auto;html=1;entryX=0.5;entryY=0;entryDx=0;entryDy=0;" edge="1" parent="1" source="_4qr_AEgsPWRSvo8s8fp-130" target="_4qr_AEgsPWRSvo8s8fp-134">
          <mxGeometry relative="1" as="geometry" />
        </mxCell>
        <mxCell id="_4qr_AEgsPWRSvo8s8fp-130" value="ExecutionException：&lt;br&gt;ee = eex;&lt;br&gt;RuntimeException：&lt;br&gt;ee = new ExecutionException(rex);" style="whiteSpace=wrap;html=1;fillColor=#d5e8d4;strokeColor=#82b366;rounded=1;" vertex="1" parent="1">
          <mxGeometry x="-160" y="912.5" width="185" height="95" as="geometry" />
        </mxCell>
        <mxCell id="_4qr_AEgsPWRSvo8s8fp-137" style="edgeStyle=orthogonalEdgeStyle;rounded=0;orthogonalLoop=1;jettySize=auto;html=1;exitX=0.5;exitY=1;exitDx=0;exitDy=0;entryX=0.5;entryY=0;entryDx=0;entryDy=0;" edge="1" parent="1" source="_4qr_AEgsPWRSvo8s8fp-134" target="_4qr_AEgsPWRSvo8s8fp-136">
          <mxGeometry relative="1" as="geometry" />
        </mxCell>
        <mxCell id="_4qr_AEgsPWRSvo8s8fp-134" value="遍历 Future 集合，调用 Future 取消任务" style="whiteSpace=wrap;html=1;fillColor=#d5e8d4;strokeColor=#82b366;rounded=1;" vertex="1" parent="1">
          <mxGeometry x="-127.5" y="1050" width="120" height="60" as="geometry" />
        </mxCell>
        <mxCell id="_4qr_AEgsPWRSvo8s8fp-136" value="抛出异常 throw ee" style="whiteSpace=wrap;html=1;fillColor=#d5e8d4;strokeColor=#82b366;rounded=1;" vertex="1" parent="1">
          <mxGeometry x="-127.5" y="1140" width="120" height="60" as="geometry" />
        </mxCell>
        <mxCell id="_4qr_AEgsPWRSvo8s8fp-138" value="正常返回结果" style="whiteSpace=wrap;html=1;fillColor=#d5e8d4;strokeColor=#82b366;rounded=1;" vertex="1" parent="1">
          <mxGeometry x="105" y="1030" width="120" height="60" as="geometry" />
        </mxCell>
      </root>
    </mxGraphModel>
  </diagram>
</mxfile>
